<?xml version="1.0" encoding="UTF-8"?>
<svg id="uuid-0812a78a-f2e9-41a0-8deb-4997b17b1516" data-name="Capa 2" xmlns="http://www.w3.org/2000/svg" viewBox="0 0 963.56 1246.55">
  <defs>
    <style>
      .uuid-22a5906d-8ea7-4744-bbab-1e2163f47b1e {
        fill: #c4d43c;
      }
    </style>
  </defs>
  <g id="uuid-dac60c24-ab5b-46f6-a648-52ec8789b299" data-name="Capa 1">
    <path class="uuid-22a5906d-8ea7-4744-bbab-1e2163f47b1e" d="M882.98,1142.92l-24.25-55.79c-3.97-9.14-7.72-18.1-13.75-26.55,6.93-7.95,16.36-13.01,21.31-22.53,15.16-29.15,26.54-59.71,36.25-91.04,4.79-15.47,15.9-19.34,24.34-33.15,16.87-53.06,28.88-106.76,36.69-161.91l-19.74-58.12-55.24-154.51-7-35.48c-8.37-42.42-15.62-83.96-25.92-125.96-5-20.4-13.01-38.23-25.41-55.38l8.57-15.06-.23-277.89-94.73,178.74c-6.54-6.57-12.24-12.68-19.84-17.81l-79.02-46.53.13-91.24-49.32,65.03c-24.13-9.02-47.62-16.83-72.98-23.41L481.26,0l-41.2,94.52c-25.49,6.51-48.94,14.07-73.1,23.4l-26.48-36.3-22.97-29.87.23,92.58c-23.7,13.33-46.3,25.88-68.83,40.14-11.09,6.29-20.03,13.67-28.99,23.96L124.28,28.84l-.51,279.55,8.97,14.23c-13.62,18.77-21.63,38.56-26.81,60.96-11.87,51.35-21.11,101.99-30.17,154.24l-51.1,141.37L.95,750.31c-3.19,9.58,2.55,21.12,3.93,30.85,4.63,32.8,11.25,64.01,20.81,95.61l11.69,38.63,20.71,25.06,12.73,36.22c7.74,22.02,16.1,43.21,27.46,63.62,4.01,7.2,11.17,11.27,17.49,16.85-9.11,12.76-15.03,26.69-20.74,41.34-12.7,32.63-28.29,72.44-61.71,86.28l-29.65,12.28c17.58,10.91,37.23,16.27,57.71,18.39,67.53,7.17,132.31-20.01,170.74-76.14l135.29,93.41c5.4,3.73,9.76,4.95,15.48,4.75l97.81,9.1,110.03-10.3,137-94.56c48.41,71.87,146.36,97.49,223.8,60.5,1.09-.69,2.42-1.61,2.6-2.36,1.26-5.23-50.7-9.83-71.16-56.89ZM848.53,1030.42l-.5.46c.59-1.04,1.17-2.05,1.7-2.99-.4.84-.8,1.69-1.2,2.53ZM859.5,1006.49c3.88-9.62,9.09-22.57,13.87-34.48-4.3,11.78-8.94,23.2-13.87,34.48ZM879.71,841.84c26.19-28.21,46.56-60.58,60.91-96.12,3.07,4.33,2.74,8.83,1.98,13.97-7.37,49.98-19.35,98.33-33.36,146.6-3.66,2.21-4.76,5.57-7.36,8.15l-48.65,48.19-42.56,34.49,14.54-29.26c18.43-37.09,31.49-75.72,43.18-115.45,1.67-4.99,7.99-6.97,11.32-10.56ZM859.39,858.5c-12.88,43.75-29.13,85.55-49.97,126.13-4.35,8.48-9.44,15.6-15.34,22.79l-9.3,7.59-18.26-18.9c12.95-12.34,21.44-25.27,28.37-40.98,22.15-50.22,38.57-101.88,49.1-156.31-11.32-39.25-24.51-75.85-38.75-113.91-19.25-51.48-43.08-100.27-70.55-147.6-3.25-5.6-7.56-8.87-13.3-11.59-34.22-16.21-67.72-32.24-101.42-50.65l-6.62-85.46c-2.01-25.92-4.81-50.8-10.18-76.18l14.89-17.4c4.53,5.45,7.65,10.81,9.4,17.3l7.02,71.68,6.09,76.44,106.44,53.77c18.86,29.84,34.5,60,48.81,92.43,30.08,68.17,54.46,137.89,73.56,209.96l-10.02,40.9ZM792.25,1022.47c-.07-.03-.14-.05-.22-.08.02-.01.03-.02.05-.03.05.04.11.07.17.11ZM259.23,921.52c13.65-18.31,28.12-33.95,36.73-53.98l16.31-37.97c7.85,4.81,14.64,11.12,20.96,17.58,0-.05,0-.1,0-.15l.59.57c-.27,1.46-.99,2.83-2.26,4.04-13.76,22.42-31.82,40.36-52.79,56.44,25.44-11.99,45.33-31.67,62.58-53.16l.14.14c-.1.13-.21.26-.32.39.18.15.28.24.28.24,1.91,1.98,5.51,3.11,6.9,7.17-24.35,26.76-52.04,50.21-89.12,58.68ZM291.09,1061.66l-2.57,4.31-.82-.85,3.39-3.46ZM266.78,973.18c1.42-1.42,2.65-3.52,4.83-3.37,2.18.15,3.54,2.29,3.95,4.79l3.38,20.46-12.34,10.72-10.16,9.59-15.27-16.7,25.6-25.49ZM234.97,768.68c10.01,7.23,17.46,14.98,25.12,23.26l7.2,60.67,5.08,12.38-14.21,20.69c-3.9-4.14-9.88-7.86-12.15-13.48l-11.05-103.51ZM280.61,1005.54c2.25,2.89,4.78,9.16,3.02,13.19-2.41,5.51-7.97,8.39-11.73,12.62-3.72-1.39-5.81-4.04-8.26-7.68l16.97-18.12ZM551.5,895.49c14.67-2.1,27.06-5.67,41.01-10.47l-23.87,52.67-15.89-23.2c-3.4-4.96-1.09-12.94-1.24-19ZM604.73,937.52l1.12,52.15-18.36,14.83-24.92-11.68,42.16-55.3ZM576.14,866.99l-93.86,19.29-94.31-19.08-77.23-70.31,51.7-24.84,7.65,37.56,41.73,13.49c22.6,7.31,26.34,21.57,43.57,31.29,18.09,1.5,35.94,1.49,53.73-.13,12.56-7.46,24.1-24.6,35.1-28.18l43.48-14.15c3.01-.98,5.89-2.26,6.77-5.4l6.32-34.37,52.23,24.56-76.87,70.28ZM488.8,932.9l-.11-23.62,48.66-11.64-.21,14.84c-.06,4.14-4.06,11.57-8.98,12.56l-39.35,7.87ZM519.65,965.12l-3.55,18.04-28.01.63-.33-21.51c10.59-.46,21.19.42,31.88,2.84ZM533.31,968.97c3.08-3.49,9.58-2.86,13.94-4.51l2.19,22.88-20.6-4.27c1.67-4.24,1.24-10.44,4.46-14.09ZM426.49,913.08l-.65-15.12,49.31,10.96-.4,23.47-33.58-5.54c-7.26-1.2-12.48-6.36-14.68-13.76ZM435.23,982.6l-20.92,4.82,1.81-23.08c5.2.81,10.07,1.73,14.67,4.12l4.45,14.13ZM475.22,962.24l.38,21.49-27.23-.42c-2.97-5.86-3.78-12.08-5.05-18.48l31.9-2.59ZM394.21,937.45l-22.97-52.64c14.66,5.44,26.45,8.68,40.79,10.6,2.76,18.61-5.23,27.36-17.82,42.04ZM401.02,992.59l-24.14,11.85-19.66-14.73.62-53.3,43.17,56.19ZM316.89,920.41l17.76,84.48,36.67,30.04,55.07-25.1,110.82-.06,51.29,23.65c3.1,1.43,6.21.08,8.56-1.86l32-26.39,17.72-84.77,19.87,10.53-16.51,81.85-84.66,83.86-37.53-62.62-92.03.04-38.28,61.97-83.96-83.12-16.69-82.06,19.9-10.43ZM641.53,888.1c-9.08-7.94-18.6-15.45-25.08-25.51-1-3.07,4.3-5.69,5.81-7.16,17.18,21.58,37,41.43,62.47,53.44-20.61-15.8-38.36-33.44-51.88-55.47-1.82-1.73-2.51-3.8-2.33-6.01l20.53-18.31,14.56,34.94c10.12,20.83,24.06,38.18,38.69,57.63-24.08-6.14-44.95-17.96-62.78-33.55ZM680.65,1010.12l14.02,15.5c-1.66,3.26-3.55,5.42-6.23,8.42-3.24-3.6-7.93-6.31-9.93-10.67-1.65-3.62.89-8.99,2.13-13.26ZM682.71,998.35l5.27-25.41c4.66,0,6.87,3.82,9.42,6.38l21.53,21.56-15.67,16.67c-3.75-1.26-5.61-4.46-8.11-6.92l-12.44-12.27ZM717.47,872.05c-3.04,5.1-6.68,8.71-11.85,13.06l-14.19-19.92,4.78-12.55,7.51-61.38,24.68-21.82-10.92,102.6ZM675.85,776.87l-110.68-51.21c-3.96-1.83-7.06-.45-10.34,1.9-7.03,5.03-16.28,7.77-22.32,14.26-3.64,5.23-2.1,13.92-2.69,20.56l27.21-15.75,17.34,22.33-4.2,20.24-31.84,8.49c-16.27,4.34-31.55,26.88-41.69,29.82-8.65,2.5-21.14,1.77-29.96.34-18.65-10.59-24.71-27.01-49.24-32.25-7.15-1.53-16.74-1.96-22.91-6.96-11.11-21.6,0-26.06,9.84-39.25,1.21-1.63,4.51-1.61,5.86-.81l23.22,13.7c-.61-6.25,1.39-14.41-2.1-19.77-4.99-6.95-14.83-9.58-21.65-14.54-3.77-2.74-7.74-3.76-12.17-1.72l-109.5,50.58-30.97-29.5-54.19-53.6,15.13-48.38-4.7-54.18c-.82-3.18,2.21-10.56,5.98-11.74,3.45-.94,8.91,3.84,10.08,7.04,9.02,24.64,14.58,49.88,25.4,73.77l27.14,28.27c2,2.08,3.96,3.29,3.59,6.39l12.38,8.11,76.01-8.67h0l42.13-4.38,39.57,37.15.14,2.19s.04,0,.06,0l-1.72-28.66-17.2-24.37,90.65-.42-13.57,17.51c-1.91,2.46-4.14,4.77-4.83,7.66-.49,8.4-.5,16.82-.04,25.25l.06-.86,39.57-37.15,42.13,4.38,9.19,1.42,66.74,8.72,11.38-8.06c.28-1.83,1.11-3.83,2.71-5.42l29.2-29.24,22.9-69.12c2.07-6.25,4.91-11.76,12.52-11.92l4.37,7.89c1.6,2.88.42,4.01.27,5.59l-4.4,48.98c-.42,4.62,1.29,9.33,2.67,13.56l12.78,39.17-32.73,31.89-52.59,50.79ZM199.91,732.77l6.49,60.02-44.87-32.44-4.3-39.85,22.75-60.37,5.66-12.99c-.8,4.67-2.85,11.9-4.3,16.46l-12.28,38.59,30.87,30.57ZM386.57,438.37l74.8,69.33,20.63,18.44,95.19-87.38,21.54-79.1c5.92,37.9,7.34,75.94,10.33,114.52.2,2.57.03,6.85,2.58,8.25,36.56,20,73.4,37.58,111.05,55.59l9.29,16.52-179.51,89.33-32.59-32.11c1.89-29.15.61-26.09,16.48-39.91l68.65-59.77-12.29-13.55-79.46,66.39-12.47,11.08-4.81,44.41,22.93,28.63-74.07.5,22.81-28.87-5.04-43.92c-8.8-11.55-22.1-20.35-33.51-29.83l-58.33-48.44-12.43,13.34,66.01,57.35c17.69,15.37,18.03,12.06,19.44,42.6l-32.28,32.4-52.02-26.58-127.28-63.21,9.64-16.68c37.94-18.01,75.06-35.74,112.04-56.1l2.65-31.61c2.55-30.39,3.35-60.15,8.72-90.48l21.31,78.86ZM353.34,291.34l128.88-39.07,86.22,26.13,42,13.09-12.97,16.63-115.08-34.68-115.37,34.92-13.67-17.01ZM700.95,600.17l-15.47,46.91-28.27,28-83.41-11.44,127.16-63.46ZM389.54,663.65l-82.13,11.71c-10.61-8.72-20.2-17.61-29.21-27.95l-15.4-47.18,126.74,63.42ZM763.77,733.01l26.96-26.11c2.26-2.19,4.24-4.69,3.22-7.94l-15.57-49.78,28.14,70.06-4.45,41.31-44.74,32.2,6.44-59.74ZM845.53,714.92l.29-1.74,2.51,11.12-2.81-9.38ZM686.15,280c-14.42,44.83-15.78,95.76-1.01,141.4-3.45,4.39-6.77,7.2-12.3,10.24-15.66-51.71-14.59-106.52.14-158.55l13.16,6.91ZM676.75,267.13l11.9-8.06,19.07,6.96c-5.29,7.12-9.5,7.84-17.4,8.67l-13.57-7.56ZM689.2,427.68c24.92,17.11,53.13,26.39,83.12,30.63,4.67-5.57,10.79-11.06,11.92-18.11,2.47-15.41-.48-30.54-3.27-45.74l8.52-14.34c6.08,27.41,9.15,54.02,7.76,81.77l-11.22,14.11c-36.37-4.54-78.07-13.25-108.35-36.92l11.53-11.41ZM722.23,437c-10.57-3.88-20.38-8.56-29.07-16.11-2.91-2.53-4.44-11.3-2.99-15.13l88.59-101.35,23.38-94.75-1.83,105.19-78.07,122.15ZM748.31,273.89l43.5-80.62-24.99,105.37-81.41,91.88c-3.91-19.4-3.93-39.23-2.23-59.45l65.12-57.19ZM679.96,186.38l38.69,24.76,19.17,19.1c-4.83,12.13-12.86,21.7-23.08,29.16-9.46-2.98-17.87-8.47-27.43-8.79-9.39,3.84-20.87,10.51-23.15,19.2-15.39,58.69-15.85,113.23,1.85,171.8,33.68,28.42,79.01,37.99,122.98,43.89,6.26-6.58,15.48-14.48,16.44-24.19,3.05-30.99-1.57-61.18-9.81-92.14l20.06-32.58c11.96,14.9,17.32,30.37,21.51,47.98,12.25,51.52,21.32,102.69,30.75,154.96l-6.74,39.78-20.76,121.67c-24.22-64.48-48.05-125.22-83.75-183.06-2.62-4.73-5.51-7.83-10.36-10.29l-99.09-50.17-13.62-144.82c-.82-8.77-5.85-15.21-12.28-21.91l52.56-67.12,6.06-37.24ZM640.66,164.16l33.05,18.75-5.87,37.56-52.14,65.69-34.49-10.53,58.25-40.83,1.2-70.65ZM627.3,226.86l-54.07,37.41,42.5-117.55,11.88-32.21-.3,112.36ZM588.3,136.02l-31.98,46.08-28.74-66.42c21.26,5.81,39.7,11.85,60.72,20.34ZM436.3,115.73l-15.45,36.73-13.35,29.25-32.17-45.37c20.33-8.7,40.05-14.62,60.96-20.61ZM364.16,143.68l32.94,45.77,25.12,36.11,8.5,13.13-9.13-23.15-6.19-17.83,66.46-153.93,67.24,154.71-16.45,41.68,22.42-34.61c4.51-6.32,9.15-12.59,13.86-19.03l53.84-73.78-56.8,158.22-83.61-25.35-84.59,25.33-55.98-155.15c9.84,8.18,14.97,18.69,22.38,27.89ZM390.96,264.5l-53.58-36.89-.94-42.78-.21-70.45,54.73,150.13ZM323.39,163.85l.97,70.8,58.39,40.83-33.59,11.03-52.75-65.7-6.31-37.98,33.29-18.97ZM215.23,273.49l65.17,57.69c2.14,19.82,1.77,39.14-1.62,59.79l-26.1-28.72-55.56-63.95-25.39-105,43.51,80.19ZM191.52,458.18c12.7-1.42,25.18-4.81,37.76-8.77,16.19-4.45,30.63-11.04,44.85-21.63l13.14,11.06c-32.34,24.08-70.93,31.94-109.72,37.32l-11.04-15.66c-1.58-26.97,2.04-52.94,8.07-79.99l9.36,13.89c-4.27,9.25-3.32,18.84-4.66,28.48-1.89,13.55.94,26.13,12.25,35.3ZM188.71,404.76l25.95,41.06-20.84,4.33c-12.87-12.79-8.05-27.01-5.12-45.38ZM279.07,422.5c15.22-50.73,12.72-92.09-.4-142.92l12.08-6.46c14.42,48.61,16.65,108.51-.15,158.52l-11.53-9.14ZM263.4,271.63c-3.02-.97-4.7-3.71-6.49-5.82l18.12-7.01,11.47,8.32c-13.72,9.13-12.22,8-23.11,4.52ZM185.21,304.92l89.54,101.8c-.22,18.83-14.72,22.07-32.92,30.84l-55.63-87.3c-7.63-11.97-14.22-23.1-22.88-34.74l-1.88-105.93,23.77,95.33ZM120.56,411.38c3.64-16.45,7.28-31.65,12.51-48.08,4.02-10.01,9.04-18.2,14.96-27.45l20.03,32.87c-6.97,30.88-12.75,61.84-9.37,93.28,1.02,9.44,10.41,16.46,16.12,23.26,42.55-4.59,90.13-15.76,123.06-43.59,18.41-57.3,17.97-118.73.09-176.17-4.32-6.56-15.34-14.19-22.61-14.55-9.23-.45-16.62,6.68-24.92,7.62-3.69.42-21.22-16.9-23.71-28.57,9.41-11.88,20.52-21.46,33.52-29.23l23.43-14,7.25,36c7.06,13.63,18.26,24.86,27.79,36.87l24.29,30.62c-6.71,6.28-11.09,13.56-12.81,22.93l-13.51,144.48-104.53,52.98c-18.12,28.14-32.96,56.27-46.58,86.56-15.93,33.75-27.88,67.38-41.88,103.72l-24.26-143.1-2.93-19.72,24.07-126.71ZM95.63,815.08c19.56-75.6,46.36-148.01,77.69-219.25,13.42-28.02,26.74-54.31,43.41-80.4l106.53-53.87,12.54-141.54c.84-9.48,3.66-17.66,11.05-24.12l14.15,17.46c-5.95,26.4-8.63,52.42-10.61,79.47l-5.99,81.92-15.93,8.72-57.69,28.97c-12.71,6.38-25.03,10.85-37.22,18.69-52.06,84.64-84.61,172.85-113.96,267.54,13.38,59.67,30.07,116.76,57.65,171.65l18.16,24.02-18.71,18.75c-9.91-7.29-15.67-17.17-21.57-28.3-21.49-40.59-37.43-82.79-50.33-127.04-4.06-13.91-9.61-27.86-9.16-42.66ZM62.09,914.07c-5.38-5.84-7.68-9.85-9.91-17.68-12.84-44.94-24.01-89.75-30.3-136.17-.76-5.62-1.54-10.47,1.53-14.7,12.66,31.55,29.46,59.17,50.53,84.48,6.62,7.95,13.3,14.51,21.61,20.8,9.69,33.65,20.68,65.91,34.79,97.99l22.97,46.93-25.44-18.82c-24.56-18.17-45.08-40.36-65.76-62.82ZM61.44,1192.6c7.04-6.8,14.21-11.22,20.01-18.66,9.23-11.85,16.72-24.14,22.09-37.62l14.66-36.82c3.44-8.64,6.37-17.18,13.04-24-8.55,20.11-13.89,40.29-16.2,61.31l22.97-22.18-16.29,38.26c3.68-.28,6.56-1.59,9.55-2.69,15.35-5.68,30.1-12.69,43.19-22.65-8.6,19.72-23.24,33.25-39.26,44.49-15.87,11.15-34.45,18.15-54.68,21.75,9.95-6.54,18.77-12.44,27.58-20.37,3.12-2.81,5.97-8.28,8.69-10.45-16.66,12.11-34.84,21.89-55.35,29.65ZM140.65,1186.08c-10.73,4.01-21.07,7.54-32.99,8.85l28.65-16.73c16.29-9.51,29.34-22.07,43.6-35.31-3.03,9.77-9.6,15.8-15.29,23.65l25.42-9.37c-14.89,12.7-31.39,22.18-49.38,28.9ZM219.34,1118.05c-7.88,13.05-18.36,24.27-31.63,31.86l23.2-40.35,6.08-13.19c.82-1.77.28-2.41-.41-3.34l-32.51,32.91,13.87-30.74c-1.52,2.16-3.82,3.62-5.75,5.17l-25.58,20.46c-7.1,5.68-15.01,10.5-23.67,14.27,2.84-11.34,7.57-19.57,11.85-28.81l6.58-14.22,8.09-17.96c-5.13,2.23-7.85,5.44-11.04,8.49l-30.36,29.01c2.26-19.18,10.26-36.04,22.76-48.54,9.21-9.21,20-17.07,32.72-20.36,4.87-1.26,10.56-3.95,16.07-2.96,2.84.51,4.12,4.71,5.57,6.13,3.95,1.66,7.11,5.71,10.05,8.67l20.91,21.07c-2.89,15.79-9.03,29.6-16.78,42.45ZM243.04,1051.05l-18.88-20.02c-2.89-3.06-7.25-5.9-9.11-9.82-2.28-4.78,7.83-12.55,8.65-10.78l1.18,2.55c7.43,6.98,15.39,14.8,20.97,23.48,8.15,5.26,17.99,17.16,14.74,21.59-3.61,4.93-10.99-.04-17.55-7.01ZM337.77,1188.04c-12.69-23.62-27.74-43.92-44.69-64.22l-32.5-33.21,7.73-5.17,12.7-12.57c17.2,17.64,31.84,35.55,46.08,55.1,18.01,27.42,34.23,54.7,48.83,85.25l-38.15-25.18ZM390.96,1218.36l-41-75.5,49.39,37.58,21.04,40.45-29.43-2.53ZM418.4,1104.07l29.92-49.41,67.23-.11,29.35,49.47-126.5.06ZM544.27,1220.94l19.89-38.99,50.8-39.96-41.05,75.68-29.64,3.27ZM671.25,1124.07c-17.59,20.37-31.8,41.41-44.88,64.13l-38.68,26.32,25.01-46.69c18.19-33.96,41.09-64.23,68.17-92.16l14.25,13.89,6.36,3.65-30.23,30.84ZM700.25,1060.48c-5.91-6.23,7.02-17.05,14.02-24.48l16.23-17.25c1.39-1.47,2.24-5.06,5.59-5.58,3.94,2.09,7.88,4.94,9.35,9.29l-11.84,11.72-16.7,15.64c-2.26,6.8-12.55,15-16.66,10.67ZM742.27,1123.29c-9.47-13.91-16-29.8-18.39-47.08l18.98-18.71c3.92-3.87,8.53-9.69,13.43-11.85.27-.33.53-.59.78-.82.97-1.34,1.94-3.57,3.83-3.65,4.07-.18,8.14,1.2,11.86,2.26.61.09,1.24.26,1.9.51,10.65,2.66,19.82,8.22,28.08,15.17,16.18,13.61,24.95,32.56,27.98,53.32l-33.78-31.42-6.68-5.24h-1.13s7.3,15.99,7.3,15.99c6.57,14.37,14.47,27.81,19.73,44.12-10.43-4.27-19.38-9.88-27.46-16.37l-20.25-16.28c-2.09-1.68-5.44-2.68-6.36-5.94-1.55,1.49-.79,2.76.26,4.91l11.81,24.08-29.77-29.87-1.41-1.15c-.4-.22-.87-.38-1.48-.4l6.77,16.11c5.79,13.76,13.38,26.18,22.4,39.47-12.6-6.77-21.21-16.58-28.41-27.15ZM823.67,1188.67c-20.53-6.49-38.91-17.26-55.55-31.57l25.3,9.53c-5.88-7.73-11.91-14.13-15.25-23.54,15.39,14.22,29.95,27.87,47.87,37.96l24.49,13.79c-9.99.36-18.1-3.4-26.86-6.17ZM842.09,1165.29c10.18,12.12,23.48,20.21,37.14,29.47-19.24-3.11-36.14-10.04-51.54-19.48-18.11-11.11-34.67-26.18-43.41-47,16.31,11.13,32.4,18.63,49.65,24.47.66.25,1.82.07,2.1-.65-5-11.91-11.64-22.78-14.7-36.12l22.75,21.41c-2.86-21.52-8.4-41.67-17.12-61.91,6.68,6.54,9.77,15.1,13.21,23.67l17.16,42.84c5.44,13.57,13.74,25.58,23.72,37.11,3.87,4.48,9.79,6.38,12.7,12.71-18.16-7.27-35.18-15.93-49.33-27.3-.22-.18-5.96-3.8-6.48-3.68l4.14,4.45Z"/>
  </g>
</svg>